<svg xmlns="http://www.w3.org/2000/svg" width="512" height="512" viewBox="0 0 512 512">
  <path d="M 103,123 L 95,137 L 92,152 L 92,364 L 96,381 L 109,401 L 123,411 L 144,417 L 368,417 L 389,411 L 406,397 L 413,386 L 418,370 L 418,147 L 412,129 L 398,113 L 373,102 L 138,102 L 119,109 Z" fill="#f3f3f3" />
  <path d="M 158,186 L 149,201 L 145,215 L 145,355 L 150,363 L 158,367 L 168,366 L 175,361 L 179,353 L 179,222 L 183,211 L 191,203 L 203,198 L 222,201 L 236,218 L 237,306 L 240,313 L 251,320 L 266,317 L 273,308 L 274,222 L 279,210 L 297,197 L 309,197 L 322,204 L 332,222 L 332,325 L 326,337 L 314,346 L 313,356 L 320,366 L 332,367 L 346,362 L 357,352 L 362,344 L 366,326 L 366,222 L 357,193 L 342,176 L 316,164 L 293,164 L 279,168 L 254,183 L 230,167 L 204,163 L 184,167 Z" fill="#d5d5d5" />
</svg>